<?xml version="1.0" encoding="UTF-8"?>
<svg version="1.1" xmlns="http://www.w3.org/2000/svg" width="512" height="512">
<path d="M0 0 C0.75485687 0.00182281 1.50971375 0.00364563 2.28744507 0.00552368 C15.67103505 0.05950891 28.74615727 0.92334854 41.9375 3.3125 C42.83082031 3.47347168 43.72414063 3.63444336 44.64453125 3.80029297 C89.84686953 12.3125278 131.29027138 33.57074256 164.203125 65.625 C165.84297243 67.22052723 167.49790286 68.79874925 169.15625 70.375 C176.52400129 77.46144994 182.82979994 85.1285926 188.9375 93.3125 C189.35209473 93.85567871 189.76668945 94.39885742 190.19384766 94.95849609 C198.18431245 105.43826145 204.69405669 116.72333392 210.9375 128.3125 C211.31648438 129.01149414 211.69546875 129.71048828 212.0859375 130.43066406 C223.30295506 151.50474124 230.1363203 175.85804019 233.9375 199.3125 C234.06592285 200.07336914 234.1943457 200.83423828 234.32666016 201.61816406 C238.21718659 225.81016479 237.23326645 252.27813967 232.9375 276.3125 C232.8142334 277.0770752 232.6909668 277.84165039 232.56396484 278.62939453 C226.44163425 316.38786449 209.02024829 352.81875447 184.9375 382.3125 C184.1228125 383.33085937 183.308125 384.34921875 182.46875 385.3984375 C170.8845585 399.65522322 157.75931337 412.46831613 142.9375 423.3125 C141.80966154 424.15854192 140.68205819 425.00489736 139.5546875 425.8515625 C109.02256681 448.49949466 73.36301688 462.37226728 35.9375 468.3125 C35.18807129 468.44092285 34.43864258 468.5693457 33.66650391 468.70166016 C9.84688165 472.69112605 -16.38992766 471.49538829 -40.0625 467.3125 C-40.99497559 467.15152832 -41.92745117 466.99055664 -42.88818359 466.82470703 C-88.44076014 458.67830054 -129.9714675 436.41512581 -163.0625 404.3125 C-163.60358398 403.79719727 -164.14466797 403.28189453 -164.70214844 402.75097656 C-172.49593488 395.32288098 -179.4248855 387.5378965 -185.86621094 378.91015625 C-186.92902349 377.49075924 -188.01378533 376.08785682 -189.1015625 374.6875 C-219.08869003 335.19827856 -234.62346185 285.10555172 -234.375 235.75 C-234.37284485 234.97046967 -234.3706897 234.19093933 -234.36846924 233.38778687 C-234.16796506 187.87507657 -221.17428515 141.92044354 -195.0625 104.3125 C-194.54461914 103.56307129 -194.02673828 102.81364258 -193.49316406 102.04150391 C-185.98150984 91.27830758 -177.92300425 81.35342318 -168.71777344 71.99853516 C-167.13124984 70.38252749 -165.56774505 68.74710239 -164.0078125 67.10546875 C-156.92284436 59.73172385 -149.25421663 53.41595378 -141.0625 47.3125 C-140.50868652 46.89258789 -139.95487305 46.47267578 -139.38427734 46.04003906 C-99.57347397 15.92628699 -49.83347571 -0.25301107 0 0 Z M-16.80078125 117.3359375 C-20.22329178 122.69751747 -20.3439717 128.02830167 -20.28955078 134.16357422 C-20.28984283 135.03251816 -20.29013489 135.9014621 -20.29043579 136.79673767 C-20.28904838 139.65365774 -20.27351493 142.51031328 -20.2578125 145.3671875 C-20.25408028 147.35401263 -20.25123429 149.34083961 -20.24923706 151.32766724 C-20.24161709 156.5456657 -20.22198263 161.76355204 -20.1998291 166.98150635 C-20.17933543 172.31057214 -20.17022781 177.63965612 -20.16015625 182.96875 C-20.13873521 193.41671581 -20.10461901 203.86459856 -20.0625 214.3125 C-21.70835083 214.30250725 -21.70835083 214.30250725 -23.38745117 214.29231262 C-33.7450933 214.23140737 -44.10269893 214.18648216 -54.46047974 214.15706348 C-59.78508996 214.14143044 -65.10955522 214.12023521 -70.43408203 214.08618164 C-75.57583027 214.05350412 -80.71743935 214.03562923 -85.85928345 214.02786827 C-87.8176187 214.02233983 -89.77594664 214.01154416 -91.73422241 213.99530983 C-94.48443863 213.97342402 -97.23408523 213.97053773 -99.984375 213.97192383 C-101.18955528 213.95574509 -101.18955528 213.95574509 -102.41908264 213.9392395 C-108.88895221 213.9743536 -114.51849734 215.1148639 -119.55859375 219.46875 C-120.19925781 220.2421875 -120.83992188 221.015625 -121.5 221.8125 C-122.15871094 222.5859375 -122.81742187 223.359375 -123.49609375 224.15625 C-127.16437938 229.20586014 -126.60555958 235.33884465 -126.0625 241.3125 C-124.36787483 246.88638762 -119.88994974 251.23094612 -115.0625 254.3125 C-109.99460123 256.41168414 -105.59651785 256.58731747 -100.21142578 256.53955078 C-99.34248184 256.53984283 -98.4735379 256.54013489 -97.57826233 256.54043579 C-94.72134226 256.53904838 -91.86468672 256.52351493 -89.0078125 256.5078125 C-87.02098737 256.50408028 -85.03416039 256.50123429 -83.04733276 256.49923706 C-77.8293343 256.49161709 -72.61144796 256.47198263 -67.39349365 256.4498291 C-62.06442786 256.42933543 -56.73534388 256.42022781 -51.40625 256.41015625 C-40.95828419 256.38873521 -30.51040144 256.35461901 -20.0625 256.3125 C-20.06916183 257.40973389 -20.07582367 258.50696777 -20.08268738 259.63745117 C-20.14359263 269.9950933 -20.18851784 280.35269893 -20.21793652 290.71047974 C-20.23356956 296.03508996 -20.25476479 301.35955522 -20.28881836 306.68408203 C-20.32149588 311.82583027 -20.33937077 316.96743935 -20.34713173 322.10928345 C-20.35266017 324.0676187 -20.36345584 326.02594664 -20.37969017 327.98422241 C-20.40157598 330.73443863 -20.40446227 333.48408523 -20.40307617 336.234375 C-20.413862 337.03782852 -20.42464783 337.84128204 -20.4357605 338.66908264 C-20.4006464 345.13895221 -19.2601361 350.76849734 -14.90625 355.80859375 C-14.1328125 356.44925781 -13.359375 357.08992187 -12.5625 357.75 C-11.7890625 358.40871094 -11.015625 359.06742188 -10.21875 359.74609375 C-5.16913986 363.41437938 0.96384465 362.85555958 6.9375 362.3125 C12.51138762 360.61787483 16.85594612 356.13994974 19.9375 351.3125 C22.03668414 346.24460123 22.21231747 341.84651785 22.16455078 336.46142578 C22.16484283 335.59248184 22.16513489 334.7235379 22.16543579 333.82826233 C22.16404838 330.97134226 22.14851493 328.11468672 22.1328125 325.2578125 C22.12908028 323.27098737 22.12623429 321.28416039 22.12423706 319.29733276 C22.11661709 314.0793343 22.09698263 308.86144796 22.0748291 303.64349365 C22.05433543 298.31442786 22.04522781 292.98534388 22.03515625 287.65625 C22.01373521 277.20828419 21.97961901 266.76040144 21.9375 256.3125 C23.58335083 256.32249275 23.58335083 256.32249275 25.26245117 256.33268738 C35.6200933 256.39359263 45.97769893 256.43851784 56.33547974 256.46793652 C61.66008996 256.48356956 66.98455522 256.50476479 72.30908203 256.53881836 C77.45083027 256.57149588 82.59243935 256.58937077 87.73428345 256.59713173 C89.6926187 256.60266017 91.65094664 256.61345584 93.60922241 256.62969017 C96.35943863 256.65157598 99.10908523 256.65446227 101.859375 256.65307617 C102.66282852 256.663862 103.46628204 256.67464783 104.29408264 256.6857605 C110.76395221 256.6506464 116.39349734 255.5101361 121.43359375 251.15625 C122.07425781 250.3828125 122.71492187 249.609375 123.375 248.8125 C124.03371094 248.0390625 124.69242188 247.265625 125.37109375 246.46875 C129.03937938 241.41913986 128.48055958 235.28615535 127.9375 229.3125 C126.24287483 223.73861238 121.76494974 219.39405388 116.9375 216.3125 C111.86960123 214.21331586 107.47151785 214.03768253 102.08642578 214.08544922 C101.21748184 214.08515717 100.3485379 214.08486511 99.45326233 214.08456421 C96.59634226 214.08595162 93.73968672 214.10148507 90.8828125 214.1171875 C88.89598737 214.12091972 86.90916039 214.12376571 84.92233276 214.12576294 C79.7043343 214.13338291 74.48644796 214.15301737 69.26849365 214.1751709 C63.93942786 214.19566457 58.61034388 214.20477219 53.28125 214.21484375 C42.83328419 214.23626479 32.38540144 214.27038099 21.9375 214.3125 C21.94416183 213.21526611 21.95082367 212.11803223 21.95768738 210.98754883 C22.01859263 200.6299067 22.06351784 190.27230107 22.09293652 179.91452026 C22.10856956 174.58991004 22.12976479 169.26544478 22.16381836 163.94091797 C22.19649588 158.79916973 22.21437077 153.65756065 22.22213173 148.51571655 C22.22766017 146.5573813 22.23845584 144.59905336 22.25469017 142.64077759 C22.27657598 139.89056137 22.27946227 137.14091477 22.27807617 134.390625 C22.288862 133.58717148 22.29964783 132.78371796 22.3107605 131.95591736 C22.2756464 125.48604779 21.1351361 119.85650266 16.78125 114.81640625 C16.0078125 114.17574219 15.234375 113.53507812 14.4375 112.875 C13.6640625 112.21628906 12.890625 111.55757813 12.09375 110.87890625 C1.97748768 103.52995482 -9.68482691 109.10872454 -16.80078125 117.3359375 Z " fill="#1F98FF" transform="translate(255.0625,20.6875)"/>
</svg>
